<?xml version="1.0" encoding="UTF-8"?> <!-- Generator: Adobe Illustrator 26.0.2, SVG Export Plug-In . SVG Version: 6.00 Build 0) --> <svg xmlns="http://www.w3.org/2000/svg" xmlns:xlink="http://www.w3.org/1999/xlink" id="Layer_1" x="0px" y="0px" viewBox="0 0 561.5 200" style="enable-background:new 0 0 561.5 200;" xml:space="preserve"> <style type="text/css"> .st0{fill:#AF126B;} .st1{fill:#FFFFFF;} .st2{fill:#DADADA;} .st3{fill:#E5077E;} </style> <g> <g> <polygon class="st0" points="75,0 175,100 75,200 125,200 200,125 200,75 125,0 "></polygon> <polygon class="st1" points="50,125 0,75 0,125 50,175 125,100 125,50 "></polygon> <polygon class="st2" points="125,61.4 50,136.4 0,86.4 0,75 50,125 125,50 "></polygon> <g> <polygon class="st3" points="86.4,200 186.4,100 86.4,0 75,0 175,100 75,200 "></polygon> </g> </g> <g> <path class="st1" d="M287.2,50.1l-19.4,26.7v17.8h-13V76.8l-19.4-26.7h16l9.9,14.8l9.9-14.8H287.2z"></path> <path class="st1" d="M309.3,50.1l21.5,44.5h-14.3l-3-6.5H292l-3,6.5h-14.3l21.5-44.5H309.3z M308.1,76.2l-5.3-11.6l-5.3,11.6 H308.1z"></path> <path class="st1" d="M377.1,82.3v12.3h-44V50.1h13v32.2H377.1z"></path> <path class="st1" d="M426.8,82.3v12.3h-44V50.1h13v32.2H426.8z"></path> <path class="st1" d="M463.7,50.1l21.5,44.5h-14.3l-3-6.5h-21.5l-3,6.5h-14.3l21.5-44.5H463.7z M462.5,76.2l-5.3-11.6l-5.3,11.6 H462.5z"></path> <path class="st1" d="M281.5,106.1v6.7h-34.2v12.7h28.2v6h-28.2v12.4h34.2v6.7h-40.4v-44.5H281.5z"></path> <path class="st1" d="M292.3,118.5c0,1.6,0.5,2.9,1.5,3.7c1,0.9,2.4,1.5,4,1.9c1.7,0.4,3.6,0.7,5.7,0.8c2.1,0.1,4.3,0.3,6.5,0.4 c2.2,0.1,4.4,0.4,6.5,0.7c2.1,0.4,4,1,5.7,1.8c1.7,0.9,3,2,4,3.6c1,1.5,1.5,3.6,1.5,6c0,0.8-0.1,1.7-0.2,2.7 c-0.1,1-0.4,1.9-0.8,2.9c-0.4,1-1,1.9-1.8,2.8c-0.8,0.9-1.8,1.7-3.1,2.4c-1.3,0.7-2.9,1.2-4.8,1.7c-1.9,0.4-4.2,0.6-6.9,0.6h-6.6 c-2.7,0-5-0.3-6.9-0.8c-1.9-0.5-3.5-1.2-4.8-2.1c-1.3-0.9-2.3-1.8-3.1-3c-0.8-1.1-1.4-2.3-1.8-3.4c-0.4-1.1-0.7-2.3-0.8-3.4 c-0.1-1.1-0.2-2.1-0.2-2.9h6.2c0,1.3,0.2,2.5,0.5,3.6c0.3,1.1,0.8,2,1.6,2.8c0.7,0.8,1.7,1.4,2.9,1.8c1.2,0.4,2.7,0.6,4.4,0.6 h11.7c2.5,0,4.5-0.4,6-1.3c1.5-0.9,2.3-2.3,2.3-4.3c0-1.6-0.5-2.9-1.5-3.7c-1-0.9-2.4-1.5-4-1.9c-1.7-0.4-3.6-0.7-5.7-0.8 c-2.1-0.1-4.3-0.3-6.5-0.5c-2.2-0.2-4.4-0.4-6.5-0.8c-2.1-0.4-4-1-5.7-1.9c-1.7-0.9-3-2.1-4-3.7c-1-1.6-1.5-3.7-1.5-6.2 c0-1.3,0.2-2.7,0.5-4.1c0.3-1.5,1.1-2.8,2.3-4c1.2-1.2,3-2.3,5.3-3.1c2.3-0.8,5.5-1.2,9.5-1.2h6.6c2.7,0,4.9,0.3,6.8,0.8 c1.9,0.5,3.5,1.2,4.8,2.1c1.3,0.9,2.3,1.9,3.1,3c0.8,1.1,1.4,2.2,1.8,3.4c0.4,1.2,0.7,2.3,0.8,3.4c0.1,1.1,0.2,2.1,0.2,2.9h-6.2 c0-1.3-0.2-2.5-0.5-3.6c-0.3-1.1-0.8-2-1.6-2.7c-0.7-0.8-1.7-1.4-2.9-1.8c-1.2-0.4-2.7-0.6-4.4-0.6h-11.7c-2.5,0-4.5,0.4-6,1.3 C293.1,115.1,292.3,116.5,292.3,118.5z"></path> <path class="st1" d="M359.6,106.1c1.1,0,2.3,0.1,3.6,0.2c1.3,0.1,2.6,0.3,3.9,0.7c1.3,0.4,2.6,0.9,3.8,1.7c1.2,0.7,2.3,1.7,3.2,3 c0.9,1.2,1.7,2.8,2.3,4.6c0.6,1.8,0.9,4,0.9,6.6c0,2.6-0.3,4.8-0.9,6.6c-0.6,1.8-1.3,3.3-2.3,4.6c-0.9,1.2-2,2.2-3.2,3 c-1.2,0.7-2.5,1.3-3.8,1.7c-1.3,0.4-2.6,0.6-3.9,0.7c-1.3,0.1-2.5,0.2-3.6,0.2h-20.3v11.2h-6.2v-44.5H359.6z M362.1,132.5 c2.6,0,4.7-0.8,6.3-2.3c1.5-1.6,2.3-4.1,2.3-7.5c0-3.4-0.8-5.9-2.3-7.4c-1.5-1.6-3.6-2.3-6.3-2.3h-22.8v19.6H362.1z"></path> <path class="st1" d="M408.9,106.1c1.1,0,2.4,0.1,3.8,0.2c1.4,0.1,2.8,0.5,4.3,1c1.5,0.5,2.9,1.3,4.2,2.2c1.4,1,2.6,2.3,3.7,3.9 c1.1,1.6,2,3.7,2.6,6.1c0.7,2.4,1,5.3,1,8.8c0,3.4-0.3,6.3-1,8.8c-0.7,2.4-1.5,4.5-2.6,6.1c-1.1,1.6-2.3,2.9-3.7,3.9 c-1.4,1-2.8,1.7-4.2,2.2c-1.5,0.5-2.9,0.9-4.3,1c-1.4,0.1-2.7,0.2-3.8,0.2h-8.1c-1.1,0-2.4-0.1-3.8-0.2c-1.4-0.1-2.8-0.5-4.3-1 c-1.5-0.5-2.9-1.3-4.2-2.2c-1.4-1-2.6-2.3-3.7-3.9c-1.1-1.6-2-3.7-2.6-6.1c-0.7-2.4-1-5.3-1-8.8c0-3.4,0.3-6.3,1-8.8 c0.7-2.4,1.5-4.5,2.6-6.1c1.1-1.6,2.3-2.9,3.7-3.9c1.4-1,2.8-1.7,4.2-2.2c1.5-0.5,2.9-0.9,4.3-1c1.4-0.1,2.7-0.2,3.8-0.2H408.9z M408.7,143.7c2.7,0,4.9-0.5,6.6-1.4c1.7-0.9,3-2.1,3.9-3.6c1-1.5,1.6-3.1,1.9-5c0.3-1.8,0.5-3.7,0.5-5.5c0-1.9-0.2-3.7-0.5-5.5 c-0.3-1.8-1-3.5-1.9-4.9c-1-1.5-2.3-2.6-3.9-3.6c-1.7-0.9-3.9-1.4-6.6-1.4h-7.8c-2.7,0-4.9,0.5-6.6,1.4c-1.7,0.9-3,2.1-3.9,3.6 c-1,1.5-1.6,3.1-1.9,4.9c-0.3,1.8-0.5,3.7-0.5,5.5c0,1.9,0.2,3.7,0.5,5.5c0.3,1.8,1,3.5,1.9,5c1,1.5,2.3,2.7,3.9,3.6 c1.7,0.9,3.9,1.4,6.6,1.4H408.7z"></path> <path class="st1" d="M477,122.7c0,2.7-0.3,5-0.9,6.9c-0.6,1.9-1.4,3.4-2.5,4.7c-1,1.2-2.2,2.2-3.5,2.9c-1.3,0.7-2.7,1.2-4.1,1.5 l12.8,11.9H469l-11.6-11.2h-18.5v11.2h-6.2v-44.5h26.5c1.1,0,2.3,0.1,3.6,0.2c1.3,0.1,2.6,0.3,3.9,0.7c1.3,0.4,2.6,0.9,3.8,1.7 c1.2,0.7,2.3,1.7,3.2,3c0.9,1.2,1.7,2.8,2.3,4.6C476.7,117.9,477,120.1,477,122.7z M438.9,132.5h22.8c2.6,0,4.7-0.8,6.3-2.3 c1.5-1.6,2.3-4.1,2.3-7.5c0-3.4-0.8-5.9-2.3-7.4c-1.5-1.6-3.6-2.3-6.3-2.3h-22.8V132.5z"></path> <path class="st1" d="M479.6,106.1H517v6.9h-15.7v37.6H495v-37.6h-15.4V106.1z"></path> <path class="st1" d="M525.9,118.5c0,1.6,0.5,2.9,1.5,3.7c1,0.9,2.4,1.5,4,1.9c1.7,0.4,3.6,0.7,5.7,0.8c2.1,0.1,4.3,0.3,6.5,0.4 c2.2,0.1,4.4,0.4,6.5,0.7c2.1,0.4,4,1,5.7,1.8c1.7,0.9,3,2,4,3.6c1,1.5,1.5,3.6,1.5,6c0,0.8-0.1,1.7-0.2,2.7 c-0.1,1-0.4,1.9-0.8,2.9c-0.4,1-1,1.9-1.8,2.8c-0.8,0.9-1.8,1.7-3.1,2.4c-1.3,0.7-2.9,1.2-4.8,1.7c-1.9,0.4-4.2,0.6-6.9,0.6h-6.6 c-2.7,0-5-0.3-6.9-0.8c-1.9-0.5-3.5-1.2-4.8-2.1c-1.3-0.9-2.3-1.8-3.1-3c-0.8-1.1-1.4-2.3-1.8-3.4c-0.4-1.1-0.7-2.3-0.8-3.4 c-0.1-1.1-0.2-2.1-0.2-2.9h6.2c0,1.3,0.2,2.5,0.5,3.6c0.3,1.1,0.8,2,1.6,2.8c0.7,0.8,1.7,1.4,2.9,1.8c1.2,0.4,2.7,0.6,4.4,0.6H547 c2.5,0,4.5-0.4,6-1.3c1.5-0.9,2.3-2.3,2.3-4.3c0-1.6-0.5-2.9-1.5-3.7c-1-0.9-2.4-1.5-4-1.9c-1.7-0.4-3.6-0.7-5.7-0.8 c-2.1-0.1-4.3-0.3-6.5-0.5c-2.2-0.2-4.4-0.4-6.5-0.8c-2.1-0.4-4-1-5.7-1.9c-1.7-0.9-3-2.1-4-3.7c-1-1.6-1.5-3.7-1.5-6.2 c0-1.3,0.2-2.7,0.5-4.1c0.3-1.5,1.1-2.8,2.3-4c1.2-1.2,3-2.3,5.3-3.1c2.3-0.8,5.5-1.2,9.5-1.2h6.6c2.7,0,4.9,0.3,6.8,0.8 c1.9,0.5,3.5,1.2,4.8,2.1c1.3,0.9,2.3,1.9,3.1,3c0.8,1.1,1.4,2.2,1.8,3.4c0.4,1.2,0.7,2.3,0.8,3.4c0.1,1.1,0.2,2.1,0.2,2.9h-6.2 c0-1.3-0.2-2.5-0.5-3.6c-0.3-1.1-0.8-2-1.6-2.7c-0.7-0.8-1.7-1.4-2.9-1.8c-1.2-0.4-2.7-0.6-4.4-0.6h-11.7c-2.5,0-4.5,0.4-6,1.3 C526.7,115.1,525.9,116.5,525.9,118.5z"></path> </g> </g> </svg> 